<svg xmlns="http://www.w3.org/2000/svg" xmlns:xlink="http://www.w3.org/1999/xlink" viewBox="0 0 2020 1000"><defs><style>.cls-1{fill:#231f20;}.cls-2,.cls-3,.cls-4,.cls-5{fill:none;stroke-width:33.36px;}.cls-2{stroke:#58595b;}.cls-2,.cls-3,.cls-4{stroke-linejoin:round;}.cls-3{stroke:#a7a9ac;}.cls-4{stroke:#fff;}.cls-5{stroke-miterlimit:10;stroke:url(#linear-gradient);}</style><linearGradient id="linear-gradient" x1="883.58" y1="534.9" x2="1100.47" y2="534.9" gradientUnits="userSpaceOnUse"><stop offset="0.28" stop-color="#808285"/><stop offset="0.58" stop-color="#d8d8d9"/><stop offset="0.73" stop-color="#fff"/></linearGradient></defs><title>logomark-zoom</title><g id="bg"><rect class="cls-1" x="-26.71" y="-15.37" width="2073.42" height="1030.75"/></g><g id="Layer_1" data-name="Layer 1"><path class="cls-2" d="M761.59,251.59h438a58.84,58.84,0,0,1,58.84,58.84V689.57a58.84,58.84,0,0,1-58.84,58.84h-438"/><path class="cls-3" d="M761.59,251.59h350.72a58.84,58.84,0,0,1,58.84,58.84V689.57a58.84,58.84,0,0,1-58.84,58.84H761.59a0,0,0,0,1,0,0V251.59A0,0,0,0,1,761.59,251.59Z"/><path class="cls-4" d="M768,474.85H947a136.78,136.78,0,0,1,136.78,136.78v0A136.78,136.78,0,0,1,947,748.41H761.59a0,0,0,0,1,0,0V481.29A6.44,6.44,0,0,1,768,474.85Z"/><path class="cls-5" d="M1083.79,611.63h0A136.78,136.78,0,0,0,947,474.85H883.58"/><path class="cls-4" d="M761.59,251.59H918.52a112,112,0,0,1,112,112v0a112,112,0,0,1-112,112H761.59a0,0,0,0,1,0,0v-224A0,0,0,0,1,761.59,251.59Z"/></g></svg>