<svg xmlns="http://www.w3.org/2000/svg" xmlns:xlink="http://www.w3.org/1999/xlink" viewBox="0 0 2020 1000"><defs><style>.cls-1{fill:#231f20;}.cls-2,.cls-3,.cls-4,.cls-5{fill:none;stroke-width:16px;}.cls-2{stroke:#58595b;}.cls-2,.cls-3,.cls-4{stroke-linejoin:round;}.cls-3{stroke:#a7a9ac;}.cls-4{stroke:#fff;}.cls-5{stroke-miterlimit:10;stroke:url(#linear-gradient);}.cls-6{fill:#fff;}</style><linearGradient id="linear-gradient" x1="645.76" y1="506.75" x2="749.78" y2="506.75" gradientUnits="userSpaceOnUse"><stop offset="0.28" stop-color="#808285"/><stop offset="0.58" stop-color="#d8d8d9"/><stop offset="0.73" stop-color="#fff"/></linearGradient></defs><title>logo-full</title><g id="bg"><rect class="cls-1" x="-26.71" y="-15.37" width="2073.42" height="1030.75"/></g><g id="Layer_1" data-name="Layer 1"><path class="cls-2" d="M587.26,370.89h210a28.22,28.22,0,0,1,28.22,28.22V580.92a28.22,28.22,0,0,1-28.22,28.22h-210"/><path class="cls-3" d="M587.26,370.89H755.45a28.22,28.22,0,0,1,28.22,28.22V580.92a28.22,28.22,0,0,1-28.22,28.22H587.26a0,0,0,0,1,0,0V370.89A0,0,0,0,1,587.26,370.89Z"/><path class="cls-4" d="M590.35,478h85.83a65.59,65.59,0,0,1,65.59,65.59v0a65.59,65.59,0,0,1-65.59,65.59H587.26a0,0,0,0,1,0,0V481a3.09,3.09,0,0,1,3.09-3.09Z"/><path class="cls-5" d="M741.78,543.55h0A65.59,65.59,0,0,0,676.18,478H645.76"/><path class="cls-4" d="M587.26,370.89h75.26a53.7,53.7,0,0,1,53.7,53.7v0a53.7,53.7,0,0,1-53.7,53.7H587.26a0,0,0,0,1,0,0V370.89A0,0,0,0,1,587.26,370.89Z"/><path class="cls-6" d="M900.61,574.91V432.73h46.48a79.07,79.07,0,0,1,19.53,2.2,39.64,39.64,0,0,1,14.6,6.84,30.06,30.06,0,0,1,9.18,11.77,41.84,41.84,0,0,1,3.17,17.09,28.89,28.89,0,0,1-5.66,17.63,36.72,36.72,0,0,1-15.43,11.87,34.79,34.79,0,0,1,10.6,4.88,32.23,32.23,0,0,1,7.81,7.62,33.21,33.21,0,0,1,4.83,9.86,39.13,39.13,0,0,1,1.66,11.43A43.44,43.44,0,0,1,994,551.53a35.25,35.25,0,0,1-9.52,12.89,41,41,0,0,1-14.84,7.86,66.46,66.46,0,0,1-19.34,2.64Zm18.75-81.54h28.32a36.74,36.74,0,0,0,11-1.56,25.14,25.14,0,0,0,8.54-4.49,20,20,0,0,0,5.52-7.18,22.78,22.78,0,0,0,2-9.62q0-11.72-6.84-17t-20.8-5.32H919.36Zm0,15v51.17h31a36.51,36.51,0,0,0,12-1.81,25.29,25.29,0,0,0,8.84-5.08,21.41,21.41,0,0,0,5.52-8,28.18,28.18,0,0,0,1.9-10.6A34.2,34.2,0,0,0,977,523.45a19.82,19.82,0,0,0-4.93-8.11,22.56,22.56,0,0,0-8.54-5.13,37.45,37.45,0,0,0-12.3-1.81Z"/><path class="cls-6" d="M1017.5,521.11a65.32,65.32,0,0,1,3.37-21.34,51.54,51.54,0,0,1,9.57-17,43.8,43.8,0,0,1,15.09-11.33,47,47,0,0,1,19.92-4.1,47.81,47.81,0,0,1,20.17,4.1,44.18,44.18,0,0,1,15.19,11.33,50.47,50.47,0,0,1,9.57,17,66.24,66.24,0,0,1,3.32,21.34v2.15a66.24,66.24,0,0,1-3.32,21.34,49.93,49.93,0,0,1-9.57,17,44,44,0,0,1-15.14,11.23,51.47,51.47,0,0,1-40,0,44,44,0,0,1-15.14-11.23,50.53,50.53,0,0,1-9.62-17,65.32,65.32,0,0,1-3.37-21.34Zm18.16,2.15a58.34,58.34,0,0,0,1.86,14.94,38,38,0,0,0,5.62,12.35,28,28,0,0,0,9.38,8.45,29.06,29.06,0,0,0,26.22,0,27.47,27.47,0,0,0,9.38-8.45,39.41,39.41,0,0,0,5.62-12.35,56.94,56.94,0,0,0,1.9-14.94v-2.15a57.11,57.11,0,0,0-1.9-14.89,38.75,38.75,0,0,0-5.66-12.4,28.42,28.42,0,0,0-9.42-8.5,26.53,26.53,0,0,0-13.18-3.17,25.78,25.78,0,0,0-13,3.17,28.71,28.71,0,0,0-9.33,8.5,37.92,37.92,0,0,0-5.62,12.4,58.51,58.51,0,0,0-1.86,14.89Z"/><path class="cls-6" d="M1131.57,521.11a65.32,65.32,0,0,1,3.37-21.34,51.54,51.54,0,0,1,9.57-17,43.8,43.8,0,0,1,15.09-11.33,47,47,0,0,1,19.92-4.1,47.81,47.81,0,0,1,20.17,4.1,44.18,44.18,0,0,1,15.19,11.33,50.47,50.47,0,0,1,9.57,17,66.24,66.24,0,0,1,3.32,21.34v2.15a66.24,66.24,0,0,1-3.32,21.34,49.93,49.93,0,0,1-9.57,17,44,44,0,0,1-15.14,11.23,51.47,51.47,0,0,1-40,0,44,44,0,0,1-15.14-11.23,50.53,50.53,0,0,1-9.62-17,65.32,65.32,0,0,1-3.37-21.34Zm18.16,2.15a58.34,58.34,0,0,0,1.86,14.94,38,38,0,0,0,5.62,12.35,28,28,0,0,0,9.38,8.45,29.06,29.06,0,0,0,26.22,0,27.47,27.47,0,0,0,9.38-8.45,39.41,39.41,0,0,0,5.62-12.35,56.94,56.94,0,0,0,1.9-14.94v-2.15a57.11,57.11,0,0,0-1.9-14.89,38.75,38.75,0,0,0-5.66-12.4,28.42,28.42,0,0,0-9.42-8.5,26.53,26.53,0,0,0-13.18-3.17,25.78,25.78,0,0,0-13,3.17,28.71,28.71,0,0,0-9.33,8.5,37.92,37.92,0,0,0-5.62,12.4,58.51,58.51,0,0,0-1.86,14.89Z"/><path class="cls-6" d="M1279.91,526l-11.33,11.82v37.11h-18.07v-150h18.07v90.72l9.67-11.62,32.91-34.77h22L1292,513.39l45.9,61.52h-21.19Z"/><path class="cls-6" d="M1386.35,548.45l24.61-79.2h19.34l-42.48,122a82.93,82.93,0,0,1-3.81,8.5,36.45,36.45,0,0,1-6.1,8.54,33,33,0,0,1-9,6.64,27,27,0,0,1-12.4,2.69,19.62,19.62,0,0,1-2.54-.2q-1.46-.2-2.93-.44t-2.73-.49q-1.27-.24-2-.44V601.38a6.71,6.71,0,0,0,1.07.15l1.42.1,1.37.1q.63,0,1,0a33.59,33.59,0,0,0,8.11-.88,17.76,17.76,0,0,0,6.25-2.88,18,18,0,0,0,4.74-5.32,42.52,42.52,0,0,0,3.66-8.2l4-10.74-37.7-104.49H1360Z"/></g></svg>