<?xml version="1.0" encoding="utf-8"?>
<!-- Generator: Adobe Illustrator 21.1.0, SVG Export Plug-In . SVG Version: 6.00 Build 0)  -->
<svg version="1.1" id="Layer_1" xmlns="http://www.w3.org/2000/svg" xmlns:xlink="http://www.w3.org/1999/xlink" x="0px" y="0px"
	 viewBox="0 0 169 41" style="enable-background:new 0 0 169 41;" xml:space="preserve">
<style type="text/css">
	.st0{enable-background:new    ;}
	.st1{fill:#FFFFFF;}
	.st2{fill:#F99521;}
	.st3{fill:#EF4237;}
	.st4{fill:#EE6F36;}
</style>
<title>full-logo</title>
<desc>Created with Sketch.</desc>
<g id="mockup">
	<g id="Home" transform="translate(-240.000000, -20.000000)">
		<g id="home-_nav">
			<g id="full-logo" transform="translate(240.000000, 18.000000)">
				<g class="st0">
					<path class="st1" d="M70.5,9.1c5,0,8.6,3.5,8.6,8.5c0,5.1-3.6,8.6-8.7,8.6h-6V35h-4V9.1H70.5z M64.4,22.8h5.1
						c3.5,0,5.5-1.9,5.5-5.2s-2-5.1-5.5-5.1h-5.1V22.8z"/>
				</g>
				<g>
				</g>
				<g class="st0">
					<path class="st1" d="M82.5,15.5h3.7v3.3h0.1c0.6-2.2,2.4-3.5,4.7-3.5c0.6,0,1.1,0.1,1.4,0.1v3.6c-0.3-0.1-1-0.2-1.8-0.2
						c-2.6,0-4.2,1.8-4.2,4.5V35h-3.9V15.5z"/>
				</g>
				<g>
				</g>
				<g class="st0">
					<path class="st1" d="M93.8,29.4c0-3.4,2.6-5.4,7.5-5.7l5.3-0.3v-1.5c0-2.2-1.5-3.5-4.1-3.5c-2.1,0-3.7,1.1-4,2.8h-3.6
						c0.1-3.5,3.4-6,7.8-6c4.8,0,7.8,2.5,7.8,6.4V35h-3.7v-3.3h-0.1c-1.1,2.1-3.5,3.5-6.2,3.5C96.5,35.2,93.8,32.9,93.8,29.4z
						 M106.5,27.7v-1.5l-4.7,0.3c-2.7,0.2-4,1.2-4,2.9c0,1.7,1.5,2.8,3.7,2.8C104.3,32.1,106.5,30.2,106.5,27.7z"/>
				</g>
				<g>
				</g>
				<g class="st0">
					<path class="st1" d="M121.9,27.8l-4.4,7.2h-4.2l6.5-9.7l-6.4-9.8h4.4l4.3,7.1h0.1l4.3-7.1h4.3l-6.4,9.6l6.4,9.9h-4.3
						L121.9,27.8L121.9,27.8z"/>
				</g>
				<g>
				</g>
				<g class="st0">
					<path class="st1" d="M134.5,42v-3.2c0.3,0.1,0.9,0.1,1.2,0.1c1.9,0,2.9-0.8,3.5-2.9l0.3-1l-7.1-19.6h4.2l5,16h0.1l5-16h4.1
						l-7.3,20.4c-1.7,4.7-3.5,6.2-7.5,6.2C135.8,42.1,134.8,42,134.5,42z"/>
				</g>
				<g>
				</g>
				<g class="st0">
					<path class="st1" d="M161,15.2c4.3,0,7.4,2.4,7.5,5.8h-3.7c-0.2-1.7-1.7-2.8-3.9-2.8c-2.2,0-3.7,1-3.7,2.6c0,1.2,1,2,3,2.5
						l3.2,0.8c3.9,1,5.4,2.4,5.4,5.2c0,3.5-3.3,5.9-8,5.9c-4.5,0-7.7-2.4-7.9-5.9h3.8c0.3,1.9,1.8,2.9,4.3,2.9c2.4,0,4-1,4-2.6
						c0-1.2-0.8-1.9-2.8-2.4l-3.5-0.9c-3.5-0.9-5.3-2.7-5.3-5.4C153.4,17.6,156.5,15.2,161,15.2z"/>
				</g>
				<g id="logo-mark-color" transform="translate(0.000000, 2.000000)">
					<g id="Group">
						<path id="Fill-2" class="st2" d="M35.5,27.1l-11.1,0.1l0-27.1L35.5,0C43,0,49,6.1,49,13.6C49,21.1,43,27.1,35.5,27.1"/>
						<polygon id="Fill-3" class="st3" points="32.4,27.1 25,27.1 25,0 						"/>
						<polygon id="Fill-4" class="st4" points="24.9,39.6 10,39.6 10,0 24.9,0 						"/>
						<polygon id="Fill-5" class="st4" points="0,19.9 4.9,19.9 4.9,15 0,15 						"/>
						<polygon id="Fill-6" class="st4" points="5,27.4 12.4,27.4 12.4,20 5,20 						"/>
					</g>
				</g>
			</g>
		</g>
	</g>
</g>
</svg>
